<?xml version="1.0" encoding="UTF-8" ?>
<!DOCTYPE svg PUBLIC "-//W3C//DTD SVG 1.1//EN" "http://www.w3.org/Graphics/SVG/1.1/DTD/svg11.dtd">
<svg width="50px" height="45px" viewBox="0 0 463 702" version="1.1" xmlns="http://www.w3.org/2000/svg">
<g id="#ffffffff">
</g>
<g id="#a445d9ff">
<path fill="#a445d9" opacity="1.00" d=" M 246.51 34.37 C 249.90 28.36 257.10 24.86 263.92 25.58 C 266.66 25.76 269.77 26.09 271.49 28.54 C 275.25 33.57 275.57 40.18 278.35 45.70 C 271.43 49.89 264.60 54.23 257.73 58.49 C 253.99 54.12 250.30 49.69 246.70 45.21 C 244.05 42.21 244.83 37.66 246.51 34.37 Z" />
<path fill="#a445d9" opacity="1.00" d=" M 111.15 51.77 C 116.12 53.23 121.25 53.94 126.40 54.38 C 128.37 58.32 130.36 62.24 132.53 66.07 C 131.20 71.26 129.40 76.31 127.96 81.47 C 120.93 80.82 113.86 80.86 106.82 81.24 C 104.76 75.89 102.88 70.47 101.06 65.04 C 104.48 60.66 107.89 56.27 111.15 51.77 Z" />
<path fill="#a445d9" opacity="1.00" d=" M 242.51 76.51 C 247.15 70.86 254.84 68.30 262.00 69.14 C 269.38 69.36 276.34 72.04 282.97 75.07 C 287.07 84.78 290.38 95.34 298.08 102.92 C 302.37 107.25 308.44 109.30 314.45 109.47 C 301.42 147.63 272.19 178.76 237.43 198.36 C 218.94 208.87 198.60 215.80 177.88 220.35 C 166.47 223.02 154.71 223.95 143.01 223.74 C 123.82 223.65 104.73 220.77 86.11 216.25 C 78.88 214.50 71.65 212.68 64.68 210.07 C 65.81 204.54 70.64 200.67 76.08 199.82 C 84.98 198.27 94.13 198.71 103.01 197.05 C 111.74 194.15 116.57 185.75 123.43 180.23 C 125.96 162.55 114.25 147.56 111.29 130.81 C 109.58 122.04 112.34 113.13 116.41 105.43 C 123.07 94.77 135.38 89.32 147.14 86.40 C 156.07 89.38 165.36 92.35 172.95 98.16 C 178.89 102.69 181.68 109.96 186.90 115.16 C 192.66 121.32 200.63 126.65 209.43 125.81 C 216.84 124.46 224.73 121.55 229.10 115.03 C 235.08 106.86 236.37 96.56 238.82 87.01 C 239.82 83.45 240.38 79.61 242.51 76.51 Z" />
<path fill="#a445d9" opacity="1.00" d=" M 189.50 81.32 C 196.24 77.09 203.96 73.77 212.07 74.08 C 218.39 74.43 223.65 79.02 226.98 84.10 C 231.24 92.28 227.78 101.56 227.15 110.15 C 221.03 113.12 214.79 115.87 208.85 119.21 C 202.28 115.29 193.80 113.36 189.59 106.43 C 186.05 98.43 189.07 89.62 189.50 81.32 Z" />
<path fill="#a445d9" opacity="1.00" d=" M 34.27 118.65 C 40.91 118.31 47.57 118.62 54.21 118.46 C 56.95 123.51 59.49 128.67 62.11 133.78 C 59.88 137.78 57.27 141.98 52.97 144.01 C 47.56 146.80 41.28 147.02 35.33 146.56 C 33.57 141.95 31.65 137.39 30.12 132.69 C 30.98 127.88 33.15 123.40 34.27 118.65 Z" />
<path fill="#a445d9" opacity="1.00" d=" M 305.04 184.03 C 318.23 166.84 329.45 148.24 339.80 129.23 C 345.94 130.17 351.95 132.23 357.02 135.90 C 367.39 143.44 376.29 152.75 384.64 162.42 C 394.22 173.48 403.00 185.97 406.40 200.42 C 408.64 209.83 407.66 219.76 404.61 228.87 C 397.68 251.74 383.09 271.63 365.58 287.61 C 350.17 301.69 332.76 313.44 314.62 323.70 C 286.48 341.22 252.62 345.91 220.07 346.85 C 192.41 347.34 164.72 346.43 137.07 347.79 C 131.18 348.27 125.37 349.41 119.54 350.35 C 104.21 353.70 88.71 357.91 75.32 366.36 C 65.65 372.45 57.20 380.59 51.27 390.40 C 49.92 357.51 49.49 323.99 58.01 291.92 C 64.77 270.23 83.78 252.29 106.39 248.48 C 114.88 247.39 123.39 246.16 131.97 246.24 C 154.01 246.47 175.98 249.04 198.03 248.40 C 211.54 247.81 225.08 245.20 237.40 239.47 C 264.73 227.98 287.14 207.30 305.04 184.03 Z" />
<path fill="#a445d9" opacity="1.00" d=" M 79.24 148.19 C 83.34 145.20 88.29 143.63 92.75 141.26 C 101.15 145.08 109.10 149.78 116.60 155.14 C 116.79 166.51 112.18 177.72 104.32 185.90 C 97.97 185.04 91.51 185.33 85.16 184.54 C 81.39 182.60 78.14 179.79 74.50 177.63 C 71.86 167.76 73.10 156.54 79.24 148.19 Z" />
<path fill="#a445d9" opacity="1.00" d=" M 399.25 294.14 C 408.98 282.59 416.95 269.05 429.65 260.42 C 433.60 307.91 425.57 357.86 399.36 398.38 C 388.72 415.91 373.37 430.08 356.44 441.44 C 334.77 455.57 309.75 464.36 284.10 467.48 C 270.76 468.58 257.30 469.55 243.97 467.95 C 227.31 466.66 210.76 463.99 194.02 464.00 C 167.99 464.28 141.92 469.11 117.71 478.73 C 93.75 487.84 71.92 501.90 52.22 518.18 C 51.94 492.26 50.95 466.31 52.53 440.41 C 53.45 435.00 57.77 431.18 61.20 427.22 C 75.04 412.40 91.26 399.67 109.42 390.56 C 126.91 382.64 145.74 377.62 164.90 376.15 C 204.88 373.40 245.71 381.28 285.06 371.10 C 299.26 367.54 313.04 362.17 325.61 354.63 C 345.74 343.60 363.20 328.51 380.25 313.29 C 386.95 307.30 393.65 301.21 399.25 294.14 Z" />
</g>
<g id="#4c9cdeff">
<path fill="#4c9cde" opacity="1.00" d=" M 134.96 502.10 C 152.47 499.00 170.66 497.93 188.11 502.00 C 188.88 526.69 189.86 551.41 188.58 576.10 C 186.19 608.58 166.78 639.43 138.24 655.23 C 135.72 656.89 132.87 657.92 129.94 658.61 C 113.73 663.41 96.63 663.06 79.90 662.95 C 70.32 662.40 60.72 662.28 51.12 661.98 C 53.27 623.14 48.12 583.87 55.31 545.36 C 70.89 532.27 86.44 518.43 105.34 510.29 C 114.77 506.14 124.89 504.03 134.96 502.10 Z" />
</g>
</svg>
